<svg width="343" height="355" viewBox="0 0 343 355" fill="none" xmlns="http://www.w3.org/2000/svg">
<path d="M248.225 0.402188C247.352 1.85844 247.934 5.93594 249.39 9.72219C251.429 15.5472 253.759 16.4209 265.992 16.4209H280.263L279.389 32.4397C277.933 53.7009 273.564 73.5059 268.904 79.0397C266.865 81.3697 264.244 86.9034 263.37 90.9809C261.914 96.8059 256.672 100.592 238.614 109.038C214.44 120.397 197.548 122.727 190.267 115.446C187.937 113.116 184.442 111.077 182.694 111.077C176.287 111.077 203.664 82.5347 214.732 77.5834C221.139 74.6709 226.382 70.8847 226.673 69.1372C226.673 67.3897 228.712 69.7197 230.75 74.6709L234.828 83.4084L235.119 73.2147C235.41 63.6034 235.702 63.3122 239.488 68.5547C246.769 78.1659 247.934 71.4672 241.235 57.7784C236.575 47.8759 235.41 42.0509 236.867 30.6922C238.032 20.2072 237.74 17.5859 235.41 20.7897C233.663 23.1197 232.207 28.3622 231.915 32.4397C231.624 38.8472 231.333 38.5559 229.003 30.1097C227.255 24.8672 224.925 21.3722 223.178 22.5372C221.43 23.4109 220.848 26.3234 221.722 28.6534C222.887 31.8572 222.013 32.4397 217.353 30.9834C211.528 28.9447 211.528 29.2359 216.188 36.5172C223.178 47.0022 219.974 52.8272 208.033 52.8272C189.684 52.8272 180.073 49.6234 179.199 43.2159C176.869 28.3622 155.608 29.2359 152.404 44.3809C150.948 51.6622 149.783 53.1184 145.705 51.3709C134.347 46.7109 127.065 46.4197 120.075 51.0797C111.047 57.1959 110.755 65.0597 119.784 77.0009C123.57 82.2434 129.687 91.8547 133.182 98.5534C137.842 106.708 142.21 111.077 145.705 111.077C150.948 111.077 150.657 110.203 143.667 103.796C139.589 100.01 135.22 92.7284 134.347 88.0684C133.182 83.1172 129.395 77.2922 125.318 74.6709C115.707 68.2634 117.454 58.3609 128.522 54.2834C135.512 51.9534 137.55 52.5359 141.919 57.7784C146.87 64.1859 147.162 64.1859 151.822 58.9434C155.899 54.5747 159.977 53.7009 170.462 54.5747C178.034 55.1572 193.762 56.6134 205.12 57.4872C224.925 59.2347 226.09 59.5259 223.178 65.0597C221.43 68.2634 214.44 73.2147 207.159 76.1272C200.169 79.3309 194.344 82.8259 194.344 84.2822C194.344 86.0297 188.228 93.3109 180.655 100.883C170.753 110.495 168.423 113.99 172.792 112.825C180.364 110.495 194.927 125.931 203.373 144.28L208.615 156.221L189.102 157.095C178.325 157.677 162.598 157.095 154.152 156.221C140.463 154.473 138.715 153.6 139.88 148.648C140.754 145.153 139.88 143.115 137.259 143.115C132.017 143.115 132.017 136.707 137.259 124.183C139.88 118.358 140.463 113.99 138.715 113.99C134.638 113.99 127.357 132.338 127.357 142.532C127.357 147.192 124.153 156.803 120.367 163.793C104.639 192.336 104.348 221.752 119.493 240.975C124.444 247.382 125.9 253.207 126.192 266.896C126.192 276.507 127.357 286.701 128.522 289.322C130.269 293.108 129.687 294.565 126.192 294.565C118.91 294.565 102.018 303.885 106.387 305.632C108.425 306.215 111.92 305.05 114.542 303.302C116.872 301.263 119.493 300.098 120.075 300.972C120.949 301.846 118.328 304.176 114.25 306.215C110.173 308.253 106.969 312.04 106.969 314.078C106.969 316.408 101.727 326.02 95.0279 335.631C88.6204 345.242 83.9604 353.98 84.5429 354.853C85.4167 355.436 91.8242 347.572 99.1054 337.087C106.095 326.602 112.794 318.738 113.668 319.903C114.833 321.068 119.784 318.156 124.444 313.496C132.308 306.215 133.182 305.632 133.182 310.875C133.473 315.535 134.347 315.243 139.298 308.253C142.793 303.885 150.657 297.477 157.064 294.273C163.763 290.778 172.209 284.953 175.995 281.167C179.782 277.381 184.442 274.177 186.48 274.177C188.519 274.177 193.762 272.138 198.422 269.808C208.615 264.566 223.178 265.44 233.663 272.43C243.857 279.128 245.604 276.798 236.575 268.352C231.042 263.11 229.877 259.906 231.333 252.625C233.954 240.101 240.944 229.907 245.895 231.946C248.225 232.82 253.759 234.276 257.837 235.15C265.409 236.606 265.409 236.606 260.167 232.237C254.342 227.577 255.215 226.703 268.613 223.791C273.855 222.626 273.855 222.335 268.03 222.043C259.002 221.752 259.584 217.675 269.487 213.597L277.35 210.102L267.448 211.558C259.293 212.723 258.419 212.432 261.04 208.937C263.662 205.733 263.662 204.568 261.04 203.695C256.672 202.238 263.662 180.103 279.098 146.61C285.505 133.212 290.457 120.98 290.457 119.523C290.457 118.067 300.942 106.708 313.757 94.1847C334.144 74.3797 337.057 70.0109 337.057 61.2734L336.765 51.3709L332.688 62.7297C330.358 69.7197 321.912 80.2047 311.135 90.3984C301.233 99.4272 289.583 113.698 284.923 122.436C279.972 131.465 275.894 136.416 274.438 134.668C271.817 130.008 275.312 114.281 282.01 102.631C286.379 95.0584 287.253 89.8159 285.797 79.9134C284.049 67.6809 288.418 36.5172 293.66 26.3234C295.699 21.9547 298.029 21.9547 308.514 24.5759C315.504 26.0322 323.659 29.2359 326.863 31.5659C333.27 35.9347 342.882 36.5172 342.882 32.7309C342.882 26.0322 304.437 9.13969 288.709 9.13969C285.505 9.13969 275.312 6.80969 265.992 3.60594C256.963 0.693438 248.808 -0.762812 248.225 0.402188ZM286.67 31.5659C285.797 34.4784 285.214 32.1484 285.214 26.6147C285.214 21.0809 285.797 18.7509 286.67 21.3722C287.253 24.2847 287.253 28.9447 286.67 31.5659ZM170.462 38.8472C175.995 44.3809 174.539 47.0022 166.675 47.0022C159.685 47.0022 156.773 41.7597 161.433 37.3909C164.054 34.4784 166.384 34.7697 170.462 38.8472ZM284.632 87.7772C284.632 89.2334 281.428 90.6897 277.35 90.6897C273.273 90.6897 270.069 89.2334 270.069 87.7772C270.069 86.0297 273.273 84.8647 277.35 84.8647C281.428 84.8647 284.632 86.0297 284.632 87.7772ZM267.157 106.126C267.157 108.165 265.7 117.485 263.953 126.513C262.497 135.833 261.914 146.027 262.788 149.231C264.827 155.056 264.827 155.056 268.904 149.813C272.69 145.153 272.69 145.736 269.195 153.308C266.865 157.968 261.914 172.24 258.419 184.472C251.429 208.355 245.313 217.383 242.109 208.937C240.944 206.316 236.867 202.238 232.789 200.2C224.634 195.831 212.984 166.997 217.353 162.628C218.809 161.172 226.09 162.92 233.663 166.123C250.847 173.696 253.177 173.696 244.148 166.415L237.449 160.59L247.06 162.337C256.089 163.793 256.672 163.502 251.72 159.716C246.478 155.347 246.478 155.347 251.72 153.891C254.633 153.017 252.012 152.435 245.604 152.143L234.537 151.852L239.197 144.571C246.187 134.086 241.527 135.542 230.459 147.483C225.508 153.017 219.683 157.677 217.935 157.677C214.732 157.677 203.082 134.377 203.082 128.552C203.082 127.096 208.033 125.348 214.149 124.183C219.974 123.018 233.372 117.776 243.857 112.533C265.409 101.466 267.157 100.883 267.157 106.126ZM171.044 162.337C208.907 164.376 210.654 164.958 214.44 175.443C220.557 192.918 218.809 199.908 207.159 203.986C192.597 209.228 197.257 211.558 213.275 207.19C224.634 203.986 227.255 204.277 233.663 208.355C237.74 210.976 240.944 215.927 240.944 219.422C240.944 224.956 239.779 225.247 226.964 223.5C213.858 221.752 212.402 222.335 204.247 230.781C194.053 241.848 175.704 250.586 163.18 250.877C154.443 250.877 153.86 251.751 147.744 271.556C143.958 284.08 140.172 291.652 138.133 290.778C132.308 289.031 129.104 272.138 132.308 261.071C135.22 252.333 134.638 250.586 128.522 244.761C124.735 241.266 119.493 232.82 116.872 225.83C113.085 215.636 112.794 210.976 115.415 197.87C117.454 189.423 121.532 176.9 125.027 169.91C129.978 159.425 132.017 157.386 137.259 159.133C140.463 160.007 155.899 161.755 171.044 162.337ZM230.75 230.49C233.663 230.49 232.789 234.567 226.964 245.926C219.974 259.323 218.227 261.071 211.528 260.197C203.373 259.032 177.743 270.682 171.044 278.546C166.384 284.08 150.657 292.817 148.909 290.778C148.035 289.905 149.783 281.458 152.695 271.847C157.064 256.411 158.812 254.372 163.763 255.537C171.335 257.285 186.48 250.877 204.538 238.062C212.693 232.237 220.848 228.16 222.887 229.033C225.217 229.907 228.712 230.49 230.75 230.49Z" fill="black"/>
<path d="M169.297 67.6809C166.384 72.6322 173.083 78.1659 177.16 74.0884C180.655 70.5934 178.325 64.4772 173.957 64.4772C172.5 64.4772 170.462 65.9334 169.297 67.6809Z" fill="black"/>
<path d="M61.5342 221.17C47.2629 232.528 44.9329 250.295 55.4179 265.731C72.6017 291.361 73.4754 315.826 57.7479 330.097C47.8454 338.835 38.8167 340.291 27.1667 334.757C16.9729 330.388 12.0217 321.942 7.65294 302.428C3.28419 284.08 -2.24955 279.42 0.954195 296.603C6.19669 327.185 19.3029 341.165 42.8942 341.165C72.8929 341.165 83.3779 301.263 62.1167 268.352C58.3304 262.818 54.5442 255.246 53.3792 252.042C48.7192 237.48 65.0292 219.422 79.3004 222.917C84.2517 224.082 88.9117 229.325 93.8629 239.518C101.435 254.372 111.629 261.653 119.784 258.741C127.065 255.828 125.027 251.46 117.454 252.916C111.338 254.081 108.425 252.042 100.562 240.392C82.7954 214.471 74.6404 210.393 61.5342 221.17Z" fill="black"/>
</svg>
