<svg width="332" height="358" viewBox="0 0 332 358" fill="none" xmlns="http://www.w3.org/2000/svg">
<path d="M198.05 4.92213C181.157 13.3684 176.789 30.2609 188.439 42.2021C192.807 46.2796 192.807 47.4446 188.439 55.0171C185.526 59.3859 183.487 66.0846 183.487 69.2884C183.487 75.4046 181.449 76.5696 169.507 75.4046C166.012 75.1134 158.731 77.7346 153.197 80.9384C147.955 84.4334 136.305 88.2196 127.859 89.9671C102.52 94.6271 87.6662 116.762 100.481 130.742C104.267 135.111 104.559 137.732 101.646 149.091C98.4425 160.45 98.7337 163.071 103.102 170.061C106.015 174.138 112.714 180.546 118.247 183.75C127.859 189.575 128.15 189.866 126.402 205.011C125.237 214.04 125.82 224.525 128.15 230.932C129.897 236.757 130.771 244.912 129.897 248.99C128.441 254.815 126.402 255.98 117.082 255.98C110.966 255.98 103.394 254.232 100.481 251.902C94.9475 247.825 94.9475 247.242 99.8987 233.553C106.306 215.787 106.306 207.341 99.8987 203.846C96.9862 202.39 83.0062 200.351 68.4437 199.186C37.5712 196.565 28.2512 193.361 13.98 179.672L3.20375 169.77L7.5725 156.955C10.1937 149.965 14.2712 140.353 16.8925 135.985C21.5525 128.121 19.805 121.131 14.8537 126.665C11.3587 130.16 0 162.488 0 168.896C0 173.847 18.0575 191.905 28.2512 197.147C35.2412 200.933 68.735 206.467 84.1712 206.467C98.4425 206.467 101.937 211.418 96.1125 225.107C86.7925 248.116 91.4525 258.018 112.714 261.513C123.49 263.261 123.49 263.552 122.907 276.367C122.325 290.056 125.529 296.463 136.014 301.997C141.256 304.91 142.13 307.24 140.674 316.56C139.8 322.385 138.052 328.21 137.179 329.375C136.014 330.54 127.276 333.161 117.956 334.908C97.86 338.986 87.9575 345.102 106.306 342.19L117.956 340.442L108.636 344.52C94.9475 350.636 96.695 352.383 112.131 348.015C119.412 345.685 125.237 344.52 125.237 345.102C125.237 345.685 120.286 348.597 114.461 351.801C96.1125 361.412 110.675 358.5 131.062 348.306C152.032 338.112 161.352 325.88 159.605 312.191C158.44 304.91 158.149 304.618 156.11 309.861C149.702 326.753 148.829 327.627 149.12 317.142C149.411 309.278 147.372 304.91 140.382 297.628C133.101 290.347 131.062 285.978 131.062 276.95C131.062 270.542 132.81 261.805 135.14 257.436C138.635 251.028 138.635 247.533 135.14 234.718C130.189 215.787 130.189 205.593 135.14 188.992C138.635 176.76 139.8 175.886 151.159 173.847C167.177 171.226 180.866 162.488 192.807 147.635C205.914 131.033 206.496 112.102 194.846 89.6759C185.235 71.9096 186.109 61.7159 198.05 54.4346C205.331 49.7746 205.622 44.5321 198.05 42.4934C191.06 40.7459 187.565 27.6396 191.642 18.9021C195.429 10.4559 216.399 4.33963 225.427 8.99963C233.582 13.3684 235.912 17.1546 235.912 26.4746C235.912 31.7171 237.369 34.6296 240.281 34.6296C242.611 34.6296 244.65 32.5909 244.65 30.2609C244.65 24.4359 253.97 20.0671 261.542 22.1059C269.406 24.1446 270.28 37.5421 262.999 43.9496C256.591 49.4834 238.825 47.7359 238.825 41.6196C238.825 39.2896 236.786 37.5421 234.456 37.5421C232.126 37.5421 230.087 40.1634 230.087 43.0759C230.087 47.1534 233.874 50.0659 244.65 53.5609C252.805 56.1821 260.669 61.1334 262.416 64.3371C264.164 67.5409 267.95 72.4921 271.154 75.6959C290.667 95.2096 258.63 107.442 230.961 91.1321C223.68 87.0546 217.272 84.4334 216.107 85.5984C212.612 89.0934 220.185 96.6659 232.126 101.326C246.98 107.151 249.892 110.063 244.65 113.267C242.611 114.723 238.825 122.587 236.786 131.033C233 146.178 233 146.47 242.32 162.197C247.562 170.643 255.426 180.546 260.086 183.75C269.697 190.74 269.989 197.73 261.834 219.573C257.756 230.35 250.766 240.835 241.155 250.446C225.719 265.882 223.971 272.581 237.951 262.387L246.106 256.562L249.601 267.047L253.387 277.823L251.931 264.135C251.057 253.65 251.931 248.99 256.591 243.165C271.154 224.525 278.144 187.245 272.61 155.207L270.28 140.353L284.551 140.645C296.201 140.936 301.152 139.188 309.599 132.781C333.481 114.723 336.976 98.1221 323.287 71.3271C314.55 54.1434 314.259 51.8134 317.462 41.9109C321.249 29.9696 319.21 24.1446 314.841 34.9209C312.22 41.0371 311.929 41.3284 311.929 36.0859C311.637 32.0084 309.599 29.9696 306.104 29.9696C301.444 29.9696 300.57 31.4259 302.026 38.4159C303.774 46.2796 303.482 46.8621 297.366 43.6584C287.755 38.4159 290.085 44.2409 299.987 50.0659C304.647 52.9784 310.181 58.2209 312.22 61.7159C313.967 65.2109 317.171 69.5796 319.21 71.9096C324.161 76.5696 327.365 93.7534 325.035 102.491C319.21 125.791 287.464 144.431 271.445 133.946C266.494 130.742 275.522 114.723 284.842 110.646C288.337 108.898 292.706 104.238 294.162 100.161C295.619 96.0834 300.57 89.3846 304.939 85.3071L313.094 78.3171L305.23 80.0646C299.405 81.2296 297.075 80.6471 297.075 78.0259C296.784 75.6959 294.454 76.8609 290.959 80.9384C286.007 87.0546 284.551 87.3459 282.221 83.8509C280.765 81.8121 279.6 78.6084 279.6 77.4434C279.6 75.9871 276.105 70.4534 272.027 65.2109C265.037 55.8909 264.746 54.7259 269.115 48.6096C274.94 40.1634 275.231 24.7271 269.406 20.0671C266.785 18.0284 260.086 16.2809 254.261 16.5721C246.397 16.8634 241.155 14.8246 233.874 8.41713C222.515 -1.48537 212.904 -2.65037 198.05 4.92213ZM169.799 85.5984C168.925 88.2196 161.352 93.4621 153.197 97.5396C145.042 101.908 132.227 111.228 124.655 118.51C110.966 131.616 110.675 131.616 104.85 126.373C97.2775 119.675 97.5687 118.51 106.597 107.733C112.422 100.743 117.082 98.4134 128.441 96.9571C136.596 95.7921 147.081 92.0059 152.324 88.2196C163.391 80.3559 172.42 79.1909 169.799 85.5984ZM180.866 121.713C175.041 132.781 167.469 139.48 160.187 139.48C158.44 139.48 160.187 135.111 164.265 129.868C168.634 124.335 171.837 119.092 171.837 117.927C171.837 116.471 174.75 111.52 178.536 106.568C184.361 97.8309 184.944 97.8309 185.817 103.656C186.4 107.151 184.07 115.306 180.866 121.713ZM273.775 110.063C273.775 111.52 271.445 115.597 268.241 119.383L262.999 126.082L259.212 119.383C256.3 113.85 256.3 112.102 259.504 110.063C264.746 106.86 273.775 106.86 273.775 110.063ZM192.225 125.5C191.934 135.111 180.284 153.751 171.255 159.285C160.77 165.983 142.712 170.935 142.712 167.44C142.712 159.285 155.527 145.596 163.1 145.305C168.051 145.305 186.4 128.995 186.4 124.626C186.4 123.17 187.856 122.005 189.312 122.005C191.06 122.005 192.225 123.752 192.225 125.5ZM255.426 126.082C254.552 128.412 255.717 131.907 258.047 133.655C262.125 137.15 265.62 148.8 269.406 169.187C272.027 184.623 264.746 183.75 253.387 167.44C243.485 152.877 242.902 146.761 248.727 132.198C252.805 122.587 258.921 117.053 255.426 126.082Z" fill="black"/>
<path d="M225.719 58.2209C222.806 62.5896 226.01 64.9196 231.544 62.5896C234.165 61.7159 235.33 59.6771 234.456 57.9296C232.126 54.1434 228.049 54.1434 225.719 58.2209Z" fill="black"/>
<path d="M167.76 281.318C165.43 298.211 167.177 300.25 172.129 286.852C175.332 278.115 177.371 276.367 184.944 276.367C193.39 276.076 193.39 276.076 182.031 271.998C175.624 269.668 170.09 267.63 170.09 267.63C169.799 267.63 168.925 273.746 167.76 281.318Z" fill="black"/>
<path d="M211.156 269.668C199.215 272.581 197.467 276.658 204.457 284.231C216.107 296.755 238.825 304.91 238.825 296.755C238.825 295.007 235.621 293.842 231.835 293.842C225.136 293.842 209.7 283.94 209.7 279.28C209.7 278.115 212.321 276.367 215.525 275.493C218.729 274.62 221.35 272.581 221.35 270.833C221.35 267.338 220.767 267.338 211.156 269.668Z" fill="black"/>
<path d="M246.98 288.891C245.524 291.803 244.65 297.628 244.65 301.415C244.65 307.24 243.485 308.405 239.116 306.948C235.621 305.783 233 306.948 231.835 310.152C230.67 312.773 230.379 315.686 230.961 316.268C233.874 319.181 291.25 336.947 291.25 334.908C291.25 333.452 286.881 331.122 281.93 329.375L272.319 325.88L283.386 327.627C290.959 328.501 294.162 328.21 292.706 326.171C291.832 324.423 288.046 322.676 284.551 322.676C279.6 322.385 280.182 321.802 286.881 320.346C294.162 318.598 291.832 317.725 273.775 315.395L251.931 312.773L250.475 298.211C249.31 288.017 248.436 285.105 246.98 288.891Z" fill="black"/>
</svg>
